<mxfile host="app.diagrams.net" modified="2023-08-28T14:54:44.769Z" agent="Mozilla/5.0 (Macintosh; Intel Mac OS X 10_15_7) AppleWebKit/537.36 (KHTML, like Gecko) Chrome/115.0.0.0 Safari/537.36" etag="VnhFukfdV3PgyEiyhUOv" version="21.6.9" type="device">
  <diagram name="Page-1" id="wBV9eUfIfjgC-YKrvhmI">
    <mxGraphModel dx="910" dy="1104" grid="0" gridSize="10" guides="1" tooltips="1" connect="1" arrows="1" fold="1" page="0" pageScale="1" pageWidth="850" pageHeight="1100" math="0" shadow="0">
      <root>
        <mxCell id="0" />
        <mxCell id="1" parent="0" />
        <mxCell id="yLORBk_02Oqd9YxlLVlL-1" value="database.js" style="ellipse;whiteSpace=wrap;html=1;fontSize=16;" vertex="1" parent="1">
          <mxGeometry x="144" y="270" width="120" height="80" as="geometry" />
        </mxCell>
        <mxCell id="yLORBk_02Oqd9YxlLVlL-11" style="edgeStyle=none;curved=1;rounded=0;orthogonalLoop=1;jettySize=auto;html=1;fontSize=12;startSize=8;endSize=8;" edge="1" parent="1" source="yLORBk_02Oqd9YxlLVlL-2" target="yLORBk_02Oqd9YxlLVlL-4">
          <mxGeometry relative="1" as="geometry" />
        </mxCell>
        <mxCell id="yLORBk_02Oqd9YxlLVlL-12" style="edgeStyle=none;curved=1;rounded=0;orthogonalLoop=1;jettySize=auto;html=1;entryX=0.45;entryY=0;entryDx=0;entryDy=0;entryPerimeter=0;fontSize=12;startSize=8;endSize=8;" edge="1" parent="1" source="yLORBk_02Oqd9YxlLVlL-2" target="yLORBk_02Oqd9YxlLVlL-3">
          <mxGeometry relative="1" as="geometry" />
        </mxCell>
        <mxCell id="yLORBk_02Oqd9YxlLVlL-13" style="edgeStyle=none;curved=1;rounded=0;orthogonalLoop=1;jettySize=auto;html=1;entryX=0.5;entryY=0;entryDx=0;entryDy=0;fontSize=12;startSize=8;endSize=8;" edge="1" parent="1" source="yLORBk_02Oqd9YxlLVlL-2" target="yLORBk_02Oqd9YxlLVlL-5">
          <mxGeometry relative="1" as="geometry" />
        </mxCell>
        <mxCell id="yLORBk_02Oqd9YxlLVlL-2" value="main.js" style="ellipse;whiteSpace=wrap;html=1;fontSize=16;" vertex="1" parent="1">
          <mxGeometry x="134" y="-120" width="120" height="80" as="geometry" />
        </mxCell>
        <mxCell id="yLORBk_02Oqd9YxlLVlL-10" style="edgeStyle=none;curved=1;rounded=0;orthogonalLoop=1;jettySize=auto;html=1;entryX=0.033;entryY=0.638;entryDx=0;entryDy=0;entryPerimeter=0;fontSize=12;startSize=8;endSize=8;" edge="1" parent="1" source="yLORBk_02Oqd9YxlLVlL-3" target="yLORBk_02Oqd9YxlLVlL-1">
          <mxGeometry relative="1" as="geometry" />
        </mxCell>
        <mxCell id="yLORBk_02Oqd9YxlLVlL-3" value="bands.js" style="ellipse;whiteSpace=wrap;html=1;fontSize=16;" vertex="1" parent="1">
          <mxGeometry x="-28" y="35" width="120" height="80" as="geometry" />
        </mxCell>
        <mxCell id="yLORBk_02Oqd9YxlLVlL-9" style="edgeStyle=none;curved=1;rounded=0;orthogonalLoop=1;jettySize=auto;html=1;fontSize=12;startSize=8;endSize=8;" edge="1" parent="1" source="yLORBk_02Oqd9YxlLVlL-4" target="yLORBk_02Oqd9YxlLVlL-1">
          <mxGeometry relative="1" as="geometry" />
        </mxCell>
        <mxCell id="yLORBk_02Oqd9YxlLVlL-4" value="bookings.js" style="ellipse;whiteSpace=wrap;html=1;fontSize=16;" vertex="1" parent="1">
          <mxGeometry x="144" y="41" width="120" height="80" as="geometry" />
        </mxCell>
        <mxCell id="yLORBk_02Oqd9YxlLVlL-8" style="edgeStyle=none;curved=1;rounded=0;orthogonalLoop=1;jettySize=auto;html=1;entryX=1;entryY=0.5;entryDx=0;entryDy=0;fontSize=12;startSize=8;endSize=8;" edge="1" parent="1" source="yLORBk_02Oqd9YxlLVlL-5" target="yLORBk_02Oqd9YxlLVlL-1">
          <mxGeometry relative="1" as="geometry" />
        </mxCell>
        <mxCell id="yLORBk_02Oqd9YxlLVlL-5" value="venues.js" style="ellipse;whiteSpace=wrap;html=1;fontSize=16;" vertex="1" parent="1">
          <mxGeometry x="319" y="41" width="120" height="80" as="geometry" />
        </mxCell>
      </root>
    </mxGraphModel>
  </diagram>
</mxfile>
